<?xml version="1.0" encoding="utf-8"?>
<!-- Generator: Adobe Illustrator 23.0.1, SVG Export Plug-In . SVG Version: 6.00 Build 0)  -->
<svg version="1.1" id="Layer_1" xmlns="http://www.w3.org/2000/svg" xmlns:xlink="http://www.w3.org/1999/xlink" x="0px" y="0px"
	 viewBox="0 0 171.4 35" style="enable-background:new 0 0 171.4 35;" xml:space="preserve">
<style type="text/css">
	.st0{fill:#FFFFFF;}
</style>
<g>
	<g>
		<g>
			<g>
				<path class="st0" d="M28.3,11.7h4.3l-5.4,15.8h-3.7l-2.8-9.8l0,0l-2.8,9.8h-3.6L8.9,11.7h4.3l3.1,9.6l0,0l2.8-9.6h3.4l2.8,9.6
					l0,0L28.3,11.7z"/>
			</g>
			<g>
				<path class="st0" d="M42.4,11.4c0.9,0,1.7,0.1,2.4,0.4c0.7,0.2,1.3,0.6,1.8,1.1s0.9,1.2,1.2,2.1c0.3,0.9,0.4,1.9,0.4,3.1v9.5H44
					v-8.4c0-1.4-0.3-2.4-0.8-3s-1.3-0.9-2.3-0.9c-1.2,0-2.1,0.4-2.7,1.1c-0.7,0.7-1,1.8-1,3.2v8H33V3.7h4.2v9.9h0.1
					c0.6-0.7,1.4-1.3,2.3-1.6C40.5,11.6,41.4,11.4,42.4,11.4L42.4,11.4z"/>
			</g>
			<g>
				<path class="st0" d="M57.4,24c-1.2,0-2.2-0.4-3-1.3c-0.8-0.8-1.2-1.9-1.2-3.1c0-1.3,0.4-2.3,1.1-3.1c0.8-0.8,1.8-1.2,3-1.2
					s2.2,0.4,2.9,1.2c0.8,0.8,1.2,1.9,1.2,3.2c0,1.3-0.4,2.3-1.2,3.1C59.5,23.6,58.6,24,57.4,24z M57.4,27.8c1.6,0,3.1-0.3,4.3-1
					c1.3-0.7,2.3-1.7,3-2.9c0.7-1.2,1.1-2.7,1.1-4.3c0-1.2-0.2-2.3-0.6-3.3s-1-1.9-1.7-2.6c-0.7-0.7-1.6-1.3-2.7-1.7
					c-1-0.4-2.2-0.6-3.4-0.6S55,11.6,54,12c-1.1,0.4-1.9,1-2.7,1.7c-0.7,0.7-1.3,1.6-1.7,2.6S49,18.5,49,19.6c0,0.9,0.1,1.8,0.4,2.7
					c0.2,0.8,0.6,1.6,1.1,2.3c0.5,0.7,1.1,1.3,1.8,1.7c0.7,0.5,1.5,0.9,2.3,1.1C55.5,27.7,56.5,27.8,57.4,27.8z"/>
			</g>
			<g>
				<path class="st0" d="M74.3,24c-1.2,0-2.2-0.4-2.9-1.2s-1.1-1.8-1.1-3.1c0-1.3,0.4-2.4,1.2-3.2c0.8-0.8,1.7-1.2,2.9-1.2
					c1.2,0,2.1,0.4,2.9,1.3c0.8,0.8,1.1,1.9,1.1,3.2c0,1.3-0.4,2.3-1.2,3.1C76.3,23.6,75.4,24,74.3,24z M78.1,13.5L78.1,13.5
					c-1.2-1.4-2.8-2.1-4.7-2.1c-1,0-2,0.2-2.9,0.6c-0.9,0.4-1.7,1-2.4,1.7c-0.7,0.7-1.2,1.6-1.6,2.6s-0.6,2.1-0.6,3.3
					c0,1.2,0.2,2.3,0.6,3.3s0.9,1.9,1.6,2.6s1.5,1.3,2.4,1.6c0.9,0.4,1.9,0.6,3,0.6c2,0,3.6-0.7,4.7-2.2h0.1v1.9h4V11.7h-4.2V13.5z"
					/>
			</g>
			<g>
				<path class="st0" d="M91.5,24c-1.2,0-2.2-0.4-2.9-1.2c-0.8-0.8-1.1-1.8-1.1-3.1c0-1.3,0.4-2.4,1.2-3.2c0.8-0.8,1.7-1.2,2.9-1.2
					c1.2,0,2.2,0.4,3,1.3c0.8,0.8,1.2,1.9,1.2,3.2c0,0.8-0.2,1.6-0.6,2.3c-0.4,0.6-0.9,1.2-1.5,1.5C93,23.8,92.3,24,91.5,24z
					 M95.5,13.5L95.5,13.5c-1.3-1.4-2.9-2.1-4.9-2.1c-1,0-2,0.2-3,0.6c-0.9,0.4-1.7,1-2.4,1.7c-0.7,0.7-1.2,1.6-1.6,2.6
					S83,18.4,83,19.6c0,0.7,0.1,1.3,0.2,2c0.2,1.2,0.7,2.3,1.4,3.3c0.3,0.5,0.7,0.9,1.2,1.2c0.4,0.3,0.9,0.6,1.4,0.9
					s1.1,0.4,1.6,0.6c0.6,0.1,1.2,0.2,1.8,0.2c2.1,0,3.7-0.7,4.8-2.2h0.1v1.9h4V3.7h-4.2L95.5,13.5z"/>
			</g>
			<g>
				<path class="st0" d="M106.7,27.8c-2.5,0-4.6-0.8-6.4-2.3l2.1-2.9c1.3,1.2,2.8,1.9,4.4,1.9c0.6,0,1.1-0.1,1.4-0.4
					c0.3-0.2,0.5-0.6,0.5-1c0-0.2-0.1-0.5-0.3-0.6c-0.2-0.2-0.5-0.4-0.9-0.5c-0.6-0.2-1.1-0.4-1.7-0.6c-0.5-0.2-0.9-0.3-1.3-0.5
					s-0.8-0.4-1.1-0.6c-0.4-0.2-0.7-0.4-1-0.7c-0.3-0.3-0.5-0.6-0.8-0.9c-0.2-0.3-0.4-0.7-0.5-1.1s-0.2-0.9-0.2-1.4
					c0-0.9,0.3-1.8,0.8-2.5s1.2-1.3,2-1.7c0.9-0.4,1.8-0.6,2.9-0.6s2.1,0.2,3.1,0.5c0.9,0.3,1.8,0.8,2.7,1.5l-2.1,3.1
					c-0.6-0.6-1.2-1-1.9-1.3c-0.7-0.3-1.3-0.4-1.9-0.4c-0.4,0-0.8,0.1-1.1,0.3c-0.3,0.2-0.5,0.5-0.5,0.9c0,0.3,0.2,0.6,0.6,0.9
					s1,0.5,1.8,0.9c0.6,0.2,1.1,0.4,1.4,0.5s0.7,0.3,1.2,0.5s0.8,0.4,1,0.6s0.5,0.4,0.8,0.6s0.5,0.5,0.6,0.8s0.2,0.6,0.3,0.9
					c0.1,0.4,0.1,0.8,0.1,1.2c0,1.5-0.5,2.7-1.6,3.6C110.2,27.3,108.7,27.8,106.7,27.8L106.7,27.8z"/>
			</g>
			<g>
				<path class="st0" d="M115.7,27.8c-0.7,0-1.4-0.3-1.9-0.8s-0.8-1.1-0.8-1.8c0-0.7,0.3-1.3,0.8-1.8s1.1-0.8,1.9-0.8
					c0.7,0,1.3,0.3,1.8,0.8s0.8,1.1,0.8,1.8c0,0.7-0.3,1.3-0.8,1.8S116.3,27.8,115.7,27.8z"/>
			</g>
			<g>
				<path class="st0" d="M139,11.4c1.8,0,3.1,0.6,4.1,1.7s1.5,2.9,1.5,5.2v9.2h-4.2v-8.2c0-2.7-0.9-4.1-2.8-4.1
					c-0.6,0-1.1,0.2-1.6,0.5s-0.9,0.8-1.2,1.5s-0.4,1.5-0.4,2.4v7.9h-4.2v-8.2c0-2.7-0.9-4.1-2.8-4.1c-0.6,0-1.2,0.2-1.7,0.5
					s-0.9,0.8-1.2,1.5c-0.3,0.7-0.4,1.5-0.4,2.4v7.9h-4.2V11.7h4.2v2.1l0,0c0.6-0.7,1.3-1.3,2.2-1.7c0.8-0.4,1.7-0.6,2.6-0.6
					c2.2,0,3.8,0.9,4.7,2.5l0,0c0.6-0.8,1.4-1.5,2.4-1.9C136.8,11.7,137.9,11.4,139,11.4L139,11.4z"/>
			</g>
			<g>
				<path class="st0" d="M153.3,15.2c0.9,0,1.6,0.2,2.2,0.7c0.6,0.5,1,1.2,1.2,2h-7c0.2-0.9,0.7-1.6,1.3-2.1
					C151.7,15.4,152.5,15.2,153.3,15.2L153.3,15.2z M161,19.5c0-1.5-0.3-2.9-1-4.1c-0.6-1.2-1.6-2.2-2.7-2.9c-1.2-0.7-2.5-1-4.1-1
					c-1.1,0-2.1,0.2-3.1,0.6c-1,0.4-1.8,1-2.5,1.7s-1.2,1.6-1.6,2.6c-0.4,1-0.6,2.1-0.6,3.3c0,1.6,0.4,3,1.1,4.3s1.7,2.2,2.9,2.9
					c1.2,0.7,2.6,1,4.2,1c1.5,0,2.9-0.3,4-0.8c1.2-0.5,2.1-1.3,2.8-2.2l-2.8-2.6c-1,1.2-2.3,1.8-3.8,1.8c-1,0-1.9-0.3-2.6-0.8
					s-1.2-1.3-1.4-2.2h11.1C160.9,20.7,161,20.2,161,19.5L161,19.5z"/>
			</g>
		</g>
		<g>
			<g>
				<path class="st0" d="M4.3,4.3H167v26.4H4.3V4.3z M171.4,0H0v35h171.4V0z"/>
			</g>
		</g>
	</g>
</g>
</svg>
